<svg id="Layer_1" data-name="Layer 1" xmlns="http://www.w3.org/2000/svg" viewBox="0 0 288 288"><defs><style>.cls-1,.cls-2,.cls-3{fill:#fff;stroke:#fff;}.cls-1,.cls-3{stroke-miterlimit:10;}.cls-1{fill-rule:evenodd;}.cls-2{stroke-miterlimit:22.93;stroke-width:0.22px;}</style></defs><title>sendArtboard 1white</title><path class="cls-1" d="M223.52,86.91a1.15,1.15,0,0,1,.34.86,1.1,1.1,0,0,1-.36.79l-16,15.77,0,0a1.2,1.2,0,0,1-.8.28,1.14,1.14,0,0,1-.76-.3l0,0-15.77-16a1.07,1.07,0,0,1-.35-.82,1.1,1.1,0,0,1,.37-.85,1.14,1.14,0,0,1,1.6.06l15,15.17,15.2-15A1.16,1.16,0,0,1,223.52,86.91ZM77.06,103.7a1.1,1.1,0,0,1-.8-.33L60.41,87.3l0-.07a1.17,1.17,0,0,1-.22-.67,1.2,1.2,0,0,1,.29-.77l0-.05,0,0a1.15,1.15,0,0,1,1.59,0l15,15.19L92.3,86a1.14,1.14,0,0,1,1.61,0,1.17,1.17,0,0,1,.34.81,1.11,1.11,0,0,1-.36.82l-16,15.78v0A1.19,1.19,0,0,1,77.06,103.7Zm82-16.46a1.11,1.11,0,0,1-.33.84l-16,15.75a1.21,1.21,0,0,1-.78.34h-.08a1.16,1.16,0,0,1-.77-.3l0,0-15.81-16,0,0A1.2,1.2,0,0,1,125,87V87a1.12,1.12,0,0,1,.36-.76,1.16,1.16,0,0,1,1.61,0l15,15.2,15.21-15,0,0a1.16,1.16,0,0,1,1.57,0A1.05,1.05,0,0,1,159,87.24Zm-3.28,107.39-4.9-12h0l-.83-2.1h0l-8.12-20-3.82,9-5.08,12-1.17,2.76h0l-4.3,10.13a1.22,1.22,0,0,1-1.19.81l-1.67,0,16.42-38.71,1.66,0,15.85,38.93h-1.77A1.16,1.16,0,0,1,155.76,194.63Zm-93.51-2.09,19.21.16L81.29,195l-21.4-.17L60.16,156l21.45.18v2.28l-19.13-.16L62.37,174l12.75.09-.06,2.28-12.71-.1Zm195.92,3.18-4.83-11.88h0l-.9-2.22h0l-8.13-20-3.81,9-5.1,12-1.16,2.76h0L230,195.53a1.17,1.17,0,0,1-1.18.82l-1.69,0,16.43-38.71h1.65l15.87,39h-1.79A1.16,1.16,0,0,1,258.17,195.72Zm-81.41-2.4a12,12,0,0,0,5-1,10.85,10.85,0,0,0,3.74-2.68,12.28,12.28,0,0,0,2.37-4.06,15.12,15.12,0,0,0,.87-5l.16-24.23,2.34.07-.16,24.16a17.28,17.28,0,0,1-1,5.83,14.58,14.58,0,0,1-2.89,4.79,13.53,13.53,0,0,1-4.51,3.23,15,15,0,0,1-11.84-.08,13.79,13.79,0,0,1-4.46-3.29,14.52,14.52,0,0,1-2.82-4.84,17.59,17.59,0,0,1-.93-5.84l.17-24.2,2.34,0L165,180.35a15.24,15.24,0,0,0,.79,5.05,12.42,12.42,0,0,0,2.33,4.13,11,11,0,0,0,3.69,2.75A12.07,12.07,0,0,0,176.76,193.32ZM91.85,156.77l24.39,33.78.25-34.2,2.22,0-.28,38.83h-1a1.19,1.19,0,0,1-1-.52l0,0-24.52-34L91.69,195l-2.25,0,.29-38.79,1.06,0h0A1.26,1.26,0,0,1,91.85,156.77ZM29.44,174.43l6.62,0a16.23,16.23,0,0,0,4.66-.58,10.33,10.33,0,0,0,3.46-1.69,7.16,7.16,0,0,0,2.15-2.61,8.16,8.16,0,0,0,.79-3.57c0-2.34-.59-4.55-2.54-6-2.2-1.6-5.29-2-7.93-2l-7.08,0Zm0,2.24L29.3,194.6H27l.29-38.84,9.41.05c3.2,0,6.73.56,9.37,2.5s3.43,4.67,3.4,7.73a10,10,0,0,1-1,4.44,9.52,9.52,0,0,1-2.72,3.35A12.86,12.86,0,0,1,41.66,176a16.54,16.54,0,0,1-3.11.65l15,18.16H51.3a2.39,2.39,0,0,1-.53-.06h-.06l-.06,0a1.78,1.78,0,0,1-.69-.53L36.21,177.35a2.24,2.24,0,0,0-.34-.35,1,1,0,0,0-.24-.15,3.57,3.57,0,0,0-.47-.11,7.13,7.13,0,0,0-.81,0Zm172.27-1.06,5.75,0a15.93,15.93,0,0,0,4.66-.58,10.59,10.59,0,0,0,3.46-1.68,7.22,7.22,0,0,0,2.15-2.63,8.12,8.12,0,0,0,.79-3.56c0-2.35-.59-4.54-2.55-6-2.19-1.6-5.28-2-7.92-2l-6.22-.05Zm0,2.24-.13,17.92h-2.33l.27-38.85,8.58.07c3.19,0,6.74.55,9.37,2.5s3.41,4.68,3.39,7.73a10,10,0,0,1-1,4.43,9.78,9.78,0,0,1-2.73,3.36,12.18,12.18,0,0,1-4.07,2.12,16.54,16.54,0,0,1-3.11.65l15,18.19-2.23,0a1.82,1.82,0,0,1-.66-.1,2,2,0,0,1-.65-.48l0,0-13.74-16.79a3.73,3.73,0,0,0-.34-.35A1.56,1.56,0,0,0,207,178a1.85,1.85,0,0,0-.45-.11,7.49,7.49,0,0,0-.83,0Zm-75.64-57-16,15.74a1.13,1.13,0,0,1-.83.35h-.09a1.14,1.14,0,0,1-.75-.34l-15.74-16a1.07,1.07,0,0,1-.36-.79,1.1,1.1,0,0,1,.35-.87,1.15,1.15,0,0,1,1.61,0l15,15.19,15.2-15a1.14,1.14,0,0,1,1.61,0,1.18,1.18,0,0,1,.34.75v.12A1.11,1.11,0,0,1,126,120.85Zm65.17-.39a1.07,1.07,0,0,1-.35.86l-16,15.74a1.14,1.14,0,0,1-.83.35h0a1.11,1.11,0,0,1-.84-.35l-15.75-16a1.09,1.09,0,0,1-.34-.85,1.15,1.15,0,0,1,2-.77l15,15.19,15.2-15a1.13,1.13,0,0,1,1.64.07A1.15,1.15,0,0,1,191.21,120.46Z"/><path class="cls-2" d="M223.52,86.91a1.15,1.15,0,0,1,.34.86,1.1,1.1,0,0,1-.36.79l-16,15.77,0,0a1.2,1.2,0,0,1-.8.28,1.14,1.14,0,0,1-.76-.3l0,0-15.77-16a1.07,1.07,0,0,1-.35-.82,1.1,1.1,0,0,1,.37-.85,1.14,1.14,0,0,1,1.6.06l15,15.17,15.2-15A1.16,1.16,0,0,1,223.52,86.91ZM77.06,103.7a1.1,1.1,0,0,1-.8-.33L60.41,87.3l0-.07a1.17,1.17,0,0,1-.22-.67,1.2,1.2,0,0,1,.29-.77l0-.05,0,0a1.15,1.15,0,0,1,1.59,0l15,15.19L92.3,86a1.14,1.14,0,0,1,1.61,0,1.17,1.17,0,0,1,.34.81,1.11,1.11,0,0,1-.36.82l-16,15.78v0A1.19,1.19,0,0,1,77.06,103.7Zm82-16.46a1.11,1.11,0,0,1-.33.84l-16,15.75a1.21,1.21,0,0,1-.78.34h-.08a1.16,1.16,0,0,1-.77-.3l0,0-15.81-16,0,0A1.2,1.2,0,0,1,125,87V87a1.12,1.12,0,0,1,.36-.76,1.16,1.16,0,0,1,1.61,0l15,15.2,15.21-15,0,0a1.16,1.16,0,0,1,1.57,0A1.05,1.05,0,0,1,159,87.24Zm-3.28,107.39-4.9-12h0l-.83-2.1h0l-8.12-20-3.82,9-5.08,12-1.17,2.76h0l-4.3,10.13a1.22,1.22,0,0,1-1.19.81l-1.67,0,16.42-38.71,1.66,0,15.85,38.93h-1.77A1.16,1.16,0,0,1,155.76,194.63Zm-93.51-2.09,19.21.16L81.29,195l-21.4-.17L60.16,156l21.45.18v2.28l-19.13-.16L62.37,174l12.75.09-.06,2.28-12.71-.1Zm195.92,3.18-4.83-11.88h0l-.9-2.22h0l-8.13-20-3.81,9-5.1,12-1.16,2.76h0L230,195.53a1.17,1.17,0,0,1-1.18.82l-1.69,0,16.43-38.71h1.65l15.87,39h-1.79A1.16,1.16,0,0,1,258.17,195.72Zm-81.41-2.4a12,12,0,0,0,5-1,10.85,10.85,0,0,0,3.74-2.68,12.28,12.28,0,0,0,2.37-4.06,15.12,15.12,0,0,0,.87-5l.16-24.23,2.34.07-.16,24.16a17.28,17.28,0,0,1-1,5.83,14.58,14.58,0,0,1-2.89,4.79,13.53,13.53,0,0,1-4.51,3.23,15,15,0,0,1-11.84-.08,13.79,13.79,0,0,1-4.46-3.29,14.52,14.52,0,0,1-2.82-4.84,17.59,17.59,0,0,1-.93-5.84l.17-24.2,2.34,0L165,180.35a15.24,15.24,0,0,0,.79,5.05,12.42,12.42,0,0,0,2.33,4.13,11,11,0,0,0,3.69,2.75A12.07,12.07,0,0,0,176.76,193.32ZM91.85,156.77l24.39,33.78.25-34.2,2.22,0-.28,38.83h-1a1.19,1.19,0,0,1-1-.52l0,0-24.52-34L91.69,195l-2.25,0,.29-38.79,1.06,0h0A1.26,1.26,0,0,1,91.85,156.77ZM29.44,174.43l6.62,0a16.23,16.23,0,0,0,4.66-.58,10.33,10.33,0,0,0,3.46-1.69,7.16,7.16,0,0,0,2.15-2.61,8.16,8.16,0,0,0,.79-3.57c0-2.34-.59-4.55-2.54-6-2.2-1.6-5.29-2-7.93-2l-7.08,0Zm0,2.24L29.3,194.6H27l.29-38.84,9.41.05c3.2,0,6.73.56,9.37,2.5s3.43,4.67,3.4,7.73a10,10,0,0,1-1,4.44,9.52,9.52,0,0,1-2.72,3.35A12.86,12.86,0,0,1,41.66,176a16.54,16.54,0,0,1-3.11.65l15,18.16H51.3a2.39,2.39,0,0,1-.53-.06h-.06l-.06,0a1.78,1.78,0,0,1-.69-.53L36.21,177.35a2.24,2.24,0,0,0-.34-.35,1,1,0,0,0-.24-.15,3.57,3.57,0,0,0-.47-.11,7.13,7.13,0,0,0-.81,0Zm172.27-1.06,5.75,0a15.93,15.93,0,0,0,4.66-.58,10.59,10.59,0,0,0,3.46-1.68,7.22,7.22,0,0,0,2.15-2.63,8.12,8.12,0,0,0,.79-3.56c0-2.35-.59-4.54-2.55-6-2.19-1.6-5.28-2-7.92-2l-6.22-.05Zm0,2.24-.13,17.92h-2.33l.27-38.85,8.58.07c3.19,0,6.74.55,9.37,2.5s3.41,4.68,3.39,7.73a10,10,0,0,1-1,4.43,9.78,9.78,0,0,1-2.73,3.36,12.18,12.18,0,0,1-4.07,2.12,16.54,16.54,0,0,1-3.11.65l15,18.19-2.23,0a1.82,1.82,0,0,1-.66-.1,2,2,0,0,1-.65-.48l0,0-13.74-16.79a3.73,3.73,0,0,0-.34-.35A1.56,1.56,0,0,0,207,178a1.85,1.85,0,0,0-.45-.11,7.49,7.49,0,0,0-.83,0Zm-75.64-57-16,15.74a1.13,1.13,0,0,1-.83.35h-.09a1.14,1.14,0,0,1-.75-.34l-15.74-16a1.07,1.07,0,0,1-.36-.79,1.1,1.1,0,0,1,.35-.87,1.15,1.15,0,0,1,1.61,0l15,15.19,15.2-15a1.14,1.14,0,0,1,1.61,0,1.18,1.18,0,0,1,.34.75v.12A1.11,1.11,0,0,1,126,120.85Zm65.17-.39a1.07,1.07,0,0,1-.35.86l-16,15.74a1.14,1.14,0,0,1-.83.35h0a1.11,1.11,0,0,1-.84-.35l-15.75-16a1.09,1.09,0,0,1-.34-.85,1.15,1.15,0,0,1,2-.77l15,15.19,15.2-15a1.13,1.13,0,0,1,1.64.07A1.15,1.15,0,0,1,191.21,120.46Z"/><path class="cls-3" d="M200.84,177l-.13,17.93h-.64l.27-37.14,7.72.06c3.85,0,6.82.8,8.88,2.33s3.06,3.86,3,7a9.28,9.28,0,0,1-.89,4.07,9,9,0,0,1-2.49,3.07,11.64,11.64,0,0,1-3.79,2,17.53,17.53,0,0,1-4.89.73,3.17,3.17,0,0,1,.47.27,5.35,5.35,0,0,1,.42.41l14.3,17.36h-.41a1,1,0,0,1-.35,0,1.15,1.15,0,0,1-.34-.28L208.28,178a4.26,4.26,0,0,0-.46-.48,2.69,2.69,0,0,0-.5-.28,3.32,3.32,0,0,0-.66-.17c-.24,0-.55,0-.92,0Zm0-.54,6.6.06a17.33,17.33,0,0,0,4.91-.61,11.44,11.44,0,0,0,3.74-1.82,8.14,8.14,0,0,0,2.39-2.93,9,9,0,0,0,.88-3.94c0-3-1-5.25-2.9-6.66s-4.74-2.16-8.41-2.18l-7.08-.06Z"/><path class="cls-2" d="M200.84,177l-.13,17.93h-.64l.27-37.14,7.72.06c3.85,0,6.82.8,8.88,2.33s3.06,3.86,3,7a9.28,9.28,0,0,1-.89,4.07,9,9,0,0,1-2.49,3.07,11.64,11.64,0,0,1-3.79,2,17.53,17.53,0,0,1-4.89.73,3.17,3.17,0,0,1,.47.27,5.35,5.35,0,0,1,.42.41l14.3,17.36h-.41a1,1,0,0,1-.35,0,1.15,1.15,0,0,1-.34-.28L208.28,178a4.26,4.26,0,0,0-.46-.48,2.69,2.69,0,0,0-.5-.28,3.32,3.32,0,0,0-.66-.17c-.24,0-.55,0-.92,0Zm0-.54,6.6.06a17.33,17.33,0,0,0,4.91-.61,11.44,11.44,0,0,0,3.74-1.82,8.14,8.14,0,0,0,2.39-2.93,9,9,0,0,0,.88-3.94c0-3-1-5.25-2.9-6.66s-4.74-2.16-8.41-2.18l-7.08-.06Z"/><path class="cls-3" d="M28.59,175.82l-.13,17.93h-.64l.28-37.14,8.57,0c3.85,0,6.8.81,8.87,2.33s3.07,3.87,3.05,7a9.22,9.22,0,0,1-.9,4.08,8.66,8.66,0,0,1-2.49,3.06,11.84,11.84,0,0,1-3.79,2,17,17,0,0,1-4.89.74,1.87,1.87,0,0,1,.48.27,5.54,5.54,0,0,1,.42.42l14.31,17.34H51.3a1.51,1.51,0,0,1-.34,0,.94.94,0,0,1-.34-.28L36.88,176.83a3.55,3.55,0,0,0-.46-.48,1.9,1.9,0,0,0-.5-.3,4.33,4.33,0,0,0-.64-.15,8,8,0,0,0-.92,0Zm0-.54,7.47.05a16.65,16.65,0,0,0,4.9-.61,11.16,11.16,0,0,0,3.74-1.83A8.16,8.16,0,0,0,47.1,170,9.2,9.2,0,0,0,48,166q0-4.53-2.89-6.66c-2-1.41-4.76-2.15-8.43-2.18l-7.93-.05Z"/><path class="cls-2" d="M28.59,175.82l-.13,17.93h-.64l.28-37.14,8.57,0c3.85,0,6.8.81,8.87,2.33s3.07,3.87,3.05,7a9.22,9.22,0,0,1-.9,4.08,8.66,8.66,0,0,1-2.49,3.06,11.84,11.84,0,0,1-3.79,2,17,17,0,0,1-4.89.74,1.87,1.87,0,0,1,.48.27,5.54,5.54,0,0,1,.42.42l14.31,17.34H51.3a1.51,1.51,0,0,1-.34,0,.94.94,0,0,1-.34-.28L36.88,176.83a3.55,3.55,0,0,0-.46-.48,1.9,1.9,0,0,0-.5-.3,4.33,4.33,0,0,0-.64-.15,8,8,0,0,0-.92,0Zm0-.54,7.47.05a16.65,16.65,0,0,0,4.9-.61,11.16,11.16,0,0,0,3.74-1.83A8.16,8.16,0,0,0,47.1,170,9.2,9.2,0,0,0,48,166q0-4.53-2.89-6.66c-2-1.41-4.76-2.15-8.43-2.18l-7.93-.05Z"/><path class="cls-3" d="M91.15,157.25l26,36a.68.68,0,0,1,0-.28v-.28l.26-35.44h.53l-.27,37.14h-.17a.38.38,0,0,1-.28-.19L91.07,158.05a3.11,3.11,0,0,1,0,.33v.31l-.25,35.48H90.3L90.57,157h.22A.4.4,0,0,1,91.15,157.25Z"/><path class="cls-2" d="M91.15,157.25l26,36a.68.68,0,0,1,0-.28v-.28l.26-35.44h.53l-.27,37.14h-.17a.38.38,0,0,1-.28-.19L91.07,158.05a3.11,3.11,0,0,1,0,.33v.31l-.25,35.48H90.3L90.57,157h.22A.4.4,0,0,1,91.15,157.25Z"/><path class="cls-3" d="M176.76,194.17a13,13,0,0,0,5.37-1,12,12,0,0,0,4-2.9,13,13,0,0,0,2.53-4.33,15.73,15.73,0,0,0,.92-5.32l.15-23.35h.65l-.16,23.33a16.64,16.64,0,0,1-1,5.55,13.33,13.33,0,0,1-2.71,4.5,12.48,12.48,0,0,1-4.24,3,14.15,14.15,0,0,1-11.13-.08,12.76,12.76,0,0,1-4.19-3.09,13.71,13.71,0,0,1-2.65-4.54,17,17,0,0,1-.88-5.57l.17-23.34h.64l-.18,23.29a16.37,16.37,0,0,0,.83,5.34,13.46,13.46,0,0,0,2.5,4.41,11.74,11.74,0,0,0,4,3A12.76,12.76,0,0,0,176.76,194.17Z"/><path class="cls-2" d="M176.76,194.17a13,13,0,0,0,5.37-1,12,12,0,0,0,4-2.9,13,13,0,0,0,2.53-4.33,15.73,15.73,0,0,0,.92-5.32l.15-23.35h.65l-.16,23.33a16.64,16.64,0,0,1-1,5.55,13.33,13.33,0,0,1-2.71,4.5,12.48,12.48,0,0,1-4.24,3,14.15,14.15,0,0,1-11.13-.08,12.76,12.76,0,0,1-4.19-3.09,13.71,13.71,0,0,1-2.65-4.54,17,17,0,0,1-.88-5.57l.17-23.34h.64l-.18,23.29a16.37,16.37,0,0,0,.83,5.34,13.46,13.46,0,0,0,2.5,4.41,11.74,11.74,0,0,0,4,3A12.76,12.76,0,0,0,176.76,194.17Z"/><path class="cls-3" d="M244.59,158.47h-.52l-15.71,37h.43a.34.34,0,0,0,.37-.27l3.81-9h0l1.66-3.94,5.1-12,4.41-10.41c.07-.17.14-.34.2-.52.06.19.14.37.19.53a5.93,5.93,0,0,0,.23.55l8.95,22h0l.21.52h0L259,195.44a.33.33,0,0,0,.32.29h.47Z"/><path class="cls-2" d="M244.59,158.47h-.52l-15.71,37h.43a.34.34,0,0,0,.37-.27l3.81-9h0l1.66-3.94,5.1-12,4.41-10.41c.07-.17.14-.34.2-.52.06.19.14.37.19.53a5.93,5.93,0,0,0,.23.55l8.95,22h0l.21.52h0L259,195.44a.33.33,0,0,0,.32.29h.47Z"/><polygon class="cls-3" points="61.39 193.38 61.51 175.4 74.23 175.49 74.24 174.91 61.52 174.83 61.64 157.41 80.76 157.57 80.76 156.99 61.01 156.83 60.74 193.97 80.5 194.13 80.54 193.54 61.39 193.38"/><polygon class="cls-2" points="61.39 193.38 61.51 175.4 74.23 175.49 74.24 174.91 61.52 174.83 61.64 157.41 80.76 157.57 80.76 156.99 61.01 156.83 60.74 193.97 80.5 194.13 80.54 193.54 61.39 193.38"/><path class="cls-3" d="M142.19,157.38h-.53L126,194.4h.42a.37.37,0,0,0,.38-.27l3.8-9h0l1.67-3.94,5.09-12,4.42-10.44c.05-.15.12-.32.2-.52.06.2.12.39.18.55s.15.36.24.55l8.94,22h0l.21.54h0l5.07,12.45a.33.33,0,0,0,.31.27h.48Z"/><path class="cls-2" d="M142.19,157.38h-.53L126,194.4h.42a.37.37,0,0,0,.38-.27l3.8-9h0l1.67-3.94,5.09-12,4.42-10.44c.05-.15.12-.32.2-.52.06.2.12.39.18.55s.15.36.24.55l8.94,22h0l.21.54h0l5.07,12.45a.33.33,0,0,0,.31.27h.48Z"/><path class="cls-3" d="M158.11,87a.32.32,0,0,0-.42,0L141.9,102.62l-15.58-15.8a.29.29,0,0,0-.41,0,.35.35,0,0,0-.1.21.36.36,0,0,0,.09.21l15.76,16a.32.32,0,0,0,.21.09h0a.4.4,0,0,0,.22-.09l16-15.77a.33.33,0,0,0,0-.43Z"/><path class="cls-2" d="M158.11,87a.32.32,0,0,0-.42,0L141.9,102.62l-15.58-15.8a.29.29,0,0,0-.41,0,.35.35,0,0,0-.1.21.36.36,0,0,0,.09.21l15.76,16a.32.32,0,0,0,.21.09h0a.4.4,0,0,0,.22-.09l16-15.77a.33.33,0,0,0,0-.43Z"/><path class="cls-3" d="M125.47,119.82a.3.3,0,0,0-.42,0l-15.79,15.58-15.58-15.8a.3.3,0,0,0-.42,0,.25.25,0,0,0-.09.22.24.24,0,0,0,.09.2L109,136a.3.3,0,0,0,.22.08h0a.28.28,0,0,0,.21-.08l16-15.78a.31.31,0,0,0,.09-.2A.33.33,0,0,0,125.47,119.82Z"/><path class="cls-2" d="M125.47,119.82a.3.3,0,0,0-.42,0l-15.79,15.58-15.58-15.8a.3.3,0,0,0-.42,0,.25.25,0,0,0-.09.22.24.24,0,0,0,.09.2L109,136a.3.3,0,0,0,.22.08h0a.28.28,0,0,0,.21-.08l16-15.78a.31.31,0,0,0,.09-.2A.33.33,0,0,0,125.47,119.82Z"/><path class="cls-3" d="M93.3,86.58a.3.3,0,0,0-.42,0L77.07,102.14,61.51,86.35a.31.31,0,0,0-.43,0,.33.33,0,0,0,0,.43l15.78,16a.26.26,0,0,0,.2.08h0a.27.27,0,0,0,.22-.08L93.3,87a.27.27,0,0,0,0-.42Z"/><path class="cls-2" d="M93.3,86.58a.3.3,0,0,0-.42,0L77.07,102.14,61.51,86.35a.31.31,0,0,0-.43,0,.33.33,0,0,0,0,.43l15.78,16a.26.26,0,0,0,.2.08h0a.27.27,0,0,0,.22-.08L93.3,87a.27.27,0,0,0,0-.42Z"/><path class="cls-3" d="M190.27,120.28a.29.29,0,0,0-.41,0l-15.79,15.57-15.57-15.8a.3.3,0,0,0-.43,0,.31.31,0,0,0-.09.22.25.25,0,0,0,.09.2l15.77,16a.27.27,0,0,0,.2.09h0a.31.31,0,0,0,.22-.09l16-15.78a.22.22,0,0,0,.07-.19A.33.33,0,0,0,190.27,120.28Z"/><path class="cls-2" d="M190.27,120.28a.29.29,0,0,0-.41,0l-15.79,15.57-15.57-15.8a.3.3,0,0,0-.43,0,.31.31,0,0,0-.09.22.25.25,0,0,0,.09.2l15.77,16a.27.27,0,0,0,.2.09h0a.31.31,0,0,0,.22-.09l16-15.78a.22.22,0,0,0,.07-.19A.33.33,0,0,0,190.27,120.28Z"/><path class="cls-3" d="M125.47,119.82a.3.3,0,0,0-.42,0l-15.79,15.58-15.58-15.8a.3.3,0,0,0-.42,0,.25.25,0,0,0-.09.22.24.24,0,0,0,.09.2L109,136a.3.3,0,0,0,.22.08h0a.28.28,0,0,0,.21-.08l16-15.78a.31.31,0,0,0,.09-.2A.33.33,0,0,0,125.47,119.82Z"/><path class="cls-2" d="M125.47,119.82a.3.3,0,0,0-.42,0l-15.79,15.58-15.58-15.8a.3.3,0,0,0-.42,0,.25.25,0,0,0-.09.22.24.24,0,0,0,.09.2L109,136a.3.3,0,0,0,.22.08h0a.28.28,0,0,0,.21-.08l16-15.78a.31.31,0,0,0,.09-.2A.33.33,0,0,0,125.47,119.82Z"/><path class="cls-3" d="M190.27,120.28a.29.29,0,0,0-.41,0l-15.79,15.57-15.57-15.8a.3.3,0,0,0-.43,0,.31.31,0,0,0-.09.22.25.25,0,0,0,.09.2l15.77,16a.27.27,0,0,0,.2.09h0a.31.31,0,0,0,.22-.09l16-15.78a.22.22,0,0,0,.07-.19A.33.33,0,0,0,190.27,120.28Z"/><path class="cls-2" d="M190.27,120.28a.29.29,0,0,0-.41,0l-15.79,15.57-15.57-15.8a.3.3,0,0,0-.43,0,.31.31,0,0,0-.09.22.25.25,0,0,0,.09.2l15.77,16a.27.27,0,0,0,.2.09h0a.31.31,0,0,0,.22-.09l16-15.78a.22.22,0,0,0,.07-.19A.33.33,0,0,0,190.27,120.28Z"/><path class="cls-3" d="M222.92,87.51a.31.31,0,0,0-.42,0l-15.8,15.57L191.13,87.3a.27.27,0,0,0-.41,0,.22.22,0,0,0-.09.21.27.27,0,0,0,.09.22l15.77,16a.36.36,0,0,0,.21.08h0a.3.3,0,0,0,.22-.08l16-15.77a.25.25,0,0,0,.09-.2A.31.31,0,0,0,222.92,87.51Z"/><path class="cls-2" d="M222.92,87.51a.31.31,0,0,0-.42,0l-15.8,15.57L191.13,87.3a.27.27,0,0,0-.41,0,.22.22,0,0,0-.09.21.27.27,0,0,0,.09.22l15.77,16a.36.36,0,0,0,.21.08h0a.3.3,0,0,0,.22-.08l16-15.77a.25.25,0,0,0,.09-.2A.31.31,0,0,0,222.92,87.51Z"/></svg>