<svg id="Layer_1" xmlns="http://www.w3.org/2000/svg" width="512" height="512" viewBox="0 0 512 512"><g fill="#676767"><path d="M254.488 127.953c-71.383 0-129.452 58.068-129.452 129.432 0 42.976 26.973 77.565 44.81 100.468 2.873 3.68 5.533 7.077 7.786 10.172 11.369 15.548 9.954 27.138 9.954 27.259l.544 5.392c-4.167 5.167-6.743 11.711-6.743 19.03 0 7.423 2.575 14.331 7.298 19.771-4.723 5.456-7.298 12.355-7.298 19.795 0 16.185 12.143 28.903 27.944 29.951-.378 1.451-.637 2.95-.637 4.514 0 10.075 8.181 18.264 18.256 18.264 10.075 0 18.244-8.188 18.244-18.264 0-1.483-.226-2.926-.564-4.32h23.955c-.346 1.402-.572 2.837-.572 4.32 0 10.075 8.165 18.264 18.24 18.264 10.091 0 18.264-8.188 18.264-18.264 0-1.483-.234-2.926-.556-4.32h.226c16.837 0 30.023-13.242 30.023-30.152 0-7.439-2.571-14.339-7.302-19.795 4.731-5.449 7.302-12.34 7.302-19.771 0-6.416-1.902-12.275-5.174-17.111l-.419-8.108c-.016-.105-1.612-10.305 9.6-32.873 4.046-8.145 9.446-16.249 15.145-24.829 14.315-21.524 30.532-45.91 30.532-79.403.03-71.362-58.034-129.422-129.406-129.422zm48.578 344.441h-92.815c-4.385 0-9.301-5.61-9.301-13.122s4.916-13.122 9.301-13.122h92.815c4.385 0 9.293 5.61 9.293 13.122s-4.908 13.122-9.293 13.122zm1.903-39.576H212.17c-4.401 0-9.309-5.609-9.309-13.113s4.912-13.122 9.309-13.122h92.799c4.384 0 9.301 5.618 9.301 13.122s-4.917 13.113-9.301 13.113zm23.454-112.638c-5.98 8.979-12.13 18.256-17.015 28.085-7.294 14.649-10.647 26.159-12.033 34.815h-82.833c-1.632-8.882-5.626-20.343-14.693-32.748-2.426-3.321-5.268-6.976-8.338-10.913-16.245-20.835-38.491-49.364-38.491-82.027 0-54.84 44.628-99.452 99.477-99.452 54.833 0 99.444 44.612 99.444 99.452-.008 24.422-12.396 43.065-25.518 62.788zM256.189 99.505c6.899 0 12.493-5.593 12.493-12.489V12.489C268.682 5.594 263.089 0 256.189 0s-12.493 5.594-12.493 12.489v74.523c0 6.9 5.594 12.493 12.493 12.493zM96.798 175.62l-64.552-37.253c-5.973-3.449-13.605-1.402-17.071 4.57-3.441 5.98-1.398 13.621 4.578 17.071l64.532 37.257c5.985 3.454 13.625 1.398 17.087-4.574 3.454-5.973 1.399-13.622-4.574-17.071zM497.184 142.937c-3.45-5.973-11.091-8.02-17.055-4.57l-64.561 37.253c-5.964 3.45-8.012 11.091-4.57 17.071 3.458 5.972 11.099 8.02 17.087 4.574l64.537-37.257c5.98-3.454 8.027-11.095 4.562-17.071zM137.639 120.989c3.441 5.98 11.103 8.027 17.071 4.582 5.984-3.45 8.02-11.099 4.578-17.071l-37.269-64.544c-3.442-5.973-11.091-8.02-17.071-4.57-5.964 3.445-8.02 11.09-4.566 17.067l37.257 64.536zM357.665 125.571c5.972 3.445 13.621 1.398 17.071-4.582l37.261-64.537c3.442-5.977 1.395-13.622-4.57-17.067-5.98-3.45-13.637-1.403-17.071 4.57l-37.27 64.544c-3.433 5.965-1.401 13.614 4.579 17.072z"/></g></svg>