<?xml version="1.0" encoding="utf-8"?>
<!-- Generator: Adobe Illustrator 16.0.0, SVG Export Plug-In . SVG Version: 6.00 Build 0)  -->
<!DOCTYPE svg PUBLIC "-//W3C//DTD SVG 1.1//EN" "http://www.w3.org/Graphics/SVG/1.1/DTD/svg11.dtd">
<svg version="1.1" id="Layer_1" xmlns="http://www.w3.org/2000/svg" xmlns:xlink="http://www.w3.org/1999/xlink" x="0px" y="0px"
	 width="512px" height="512px" viewBox="0 0 512 512" enable-background="new 0 0 512 512" xml:space="preserve">
<g>
	<path fill="#676767" d="M254.488,127.953c-71.383,0-129.452,58.068-129.452,129.432c0,42.976,26.973,77.565,44.81,100.468
		c2.873,3.68,5.533,7.077,7.786,10.172c11.369,15.548,9.954,27.138,9.954,27.259l0.544,5.392c-4.167,5.167-6.743,11.711-6.743,19.03
		c0,7.423,2.575,14.331,7.298,19.771c-4.723,5.456-7.298,12.355-7.298,19.795c0,16.185,12.143,28.903,27.944,29.951
		c-0.378,1.451-0.637,2.95-0.637,4.514c0,10.075,8.181,18.264,18.256,18.264c10.075,0,18.244-8.188,18.244-18.264
		c0-1.483-0.226-2.926-0.564-4.32h23.955c-0.346,1.402-0.572,2.837-0.572,4.32c0,10.075,8.165,18.264,18.24,18.264
		c10.091,0,18.264-8.188,18.264-18.264c0-1.483-0.234-2.926-0.556-4.32h0.226c16.837,0,30.023-13.242,30.023-30.152
		c0-7.439-2.571-14.339-7.302-19.795c4.731-5.449,7.302-12.34,7.302-19.771c0-6.416-1.902-12.275-5.174-17.111l-0.419-8.108
		c-0.016-0.105-1.612-10.305,9.6-32.873c4.046-8.145,9.446-16.249,15.145-24.829c14.315-21.524,30.532-45.91,30.532-79.403
		C383.924,186.013,325.86,127.953,254.488,127.953z M303.066,472.394h-92.815c-4.385,0-9.301-5.61-9.301-13.122
		c0-7.512,4.916-13.122,9.301-13.122h92.815c4.385,0,9.293,5.61,9.293,13.122C312.359,466.784,307.451,472.394,303.066,472.394z
		 M304.969,432.818h-92.799c-4.401,0-9.309-5.609-9.309-13.113s4.912-13.122,9.309-13.122h92.799c4.384,0,9.301,5.618,9.301,13.122
		S309.353,432.818,304.969,432.818z M328.423,320.18c-5.98,8.979-12.13,18.256-17.015,28.085
		c-7.294,14.649-10.647,26.159-12.033,34.815h-82.833c-1.632-8.882-5.626-20.343-14.693-32.748
		c-2.426-3.321-5.268-6.976-8.338-10.913c-16.245-20.835-38.491-49.364-38.491-82.027c0-54.84,44.628-99.452,99.477-99.452
		c54.833,0,99.444,44.612,99.444,99.452C353.933,281.814,341.545,300.457,328.423,320.18z"/>
	<path fill="#676767" d="M256.189,99.505c6.899,0,12.493-5.593,12.493-12.489V12.489C268.682,5.594,263.089,0,256.189,0
		s-12.493,5.594-12.493,12.489v74.523C243.696,93.912,249.29,99.505,256.189,99.505z"/>
	<path fill="#676767" d="M96.798,175.62l-64.552-37.253c-5.973-3.449-13.605-1.402-17.071,4.57
		c-3.441,5.98-1.398,13.621,4.578,17.071l64.532,37.257c5.985,3.454,13.625,1.398,17.087-4.574
		C104.826,186.718,102.771,179.069,96.798,175.62z"/>
	<path fill="#676767" d="M497.184,142.937c-3.45-5.973-11.091-8.02-17.055-4.57l-64.561,37.253
		c-5.964,3.45-8.012,11.091-4.57,17.071c3.458,5.972,11.099,8.02,17.087,4.574l64.537-37.257
		C498.602,156.554,500.649,148.913,497.184,142.937z"/>
	<path fill="#676767" d="M137.639,120.989c3.441,5.98,11.103,8.027,17.071,4.582c5.984-3.45,8.02-11.099,4.578-17.071
		l-37.269-64.544c-3.442-5.973-11.091-8.02-17.071-4.57c-5.964,3.445-8.02,11.09-4.566,17.067L137.639,120.989z"/>
	<path fill="#676767" d="M357.665,125.571c5.972,3.445,13.621,1.398,17.071-4.582l37.261-64.537
		c3.442-5.977,1.395-13.622-4.57-17.067c-5.98-3.45-13.637-1.403-17.071,4.57l-37.27,64.544
		C349.653,114.464,351.685,122.113,357.665,125.571z"/>
</g>
</svg>
